HIERARCHY
ROOT Hips
{
	OFFSET 0.000000 87.230942 0.000000
	CHANNELS 6 Xposition Yposition Zposition Xrotation Yrotation Zrotation
	JOINT Pelvis
	{
		OFFSET 0.000000 0.000000 0.000000
		CHANNELS 3 Xrotation Yrotation Zrotation
		JOINT LeftUpLeg
		{
			OFFSET 12.017000 -9.376404 -2.439400
			CHANNELS 3 Xrotation Yrotation Zrotation
			JOINT LeftLeg
			{
				OFFSET -0.007312 -32.846973 2.110600
				CHANNELS 3 Xrotation Yrotation Zrotation
				JOINT LeftFoot
				{
					OFFSET 0.007312 -32.065170 -0.570400
					CHANNELS 3 Xrotation Yrotation Zrotation
					JOINT LeftToeBase
					{
						OFFSET 0.728300 -11.045900 13.180700
						CHANNELS 3 Xrotation Yrotation Zrotation
						End Site
						{
							OFFSET 0.000000 17.212589 0.000000
						}
					}
				}
				JOINT LeftPantLeg
				{
					OFFSET 0.002788 -16.709013 -3.143600
					CHANNELS 3 Xrotation Yrotation Zrotation
					End Site
					{
						OFFSET -0.605125 24.528742 0.000000
					}
				}
			}
			JOINT Left_Butt
			{
				OFFSET -6.630234 1.326584 -3.183700
				CHANNELS 3 Xrotation Yrotation Zrotation
				End Site
				{
					OFFSET -0.498041 20.188049 0.000000
				}
			}
		}
		JOINT RightUpLeg
		{
			OFFSET -11.717000 -9.376404 -2.439400
			CHANNELS 3 Xrotation Yrotation Zrotation
			JOINT RightLeg
			{
				OFFSET -0.003241 -32.846912 2.110600
				CHANNELS 3 Xrotation Yrotation Zrotation
				JOINT RightFoot
				{
					OFFSET 0.003241 -32.065136 -0.570500
					CHANNELS 3 Xrotation Yrotation Zrotation
					JOINT RightToeBase
					{
						OFFSET -0.728300 -11.045901 13.180700
						CHANNELS 3 Xrotation Yrotation Zrotation
						End Site
						{
							OFFSET 0.000000 17.212593 0.000000
						}
					}
				}
				JOINT RightPantLeg
				{
					OFFSET 0.008142 -16.708982 -3.143700
					CHANNELS 3 Xrotation Yrotation Zrotation
					End Site
					{
						OFFSET 0.605088 24.528715 0.000000
					}
				}
			}
			JOINT Right_Butt
			{
				OFFSET 6.630732 1.326584 -3.183700
				CHANNELS 3 Xrotation Yrotation Zrotation
				End Site
				{
					OFFSET 0.498015 20.188240 0.000000
				}
			}
		}
	}
	JOINT Spine
	{
		OFFSET -0.062400 7.848404 3.918300
		CHANNELS 3 Xrotation Yrotation Zrotation
		JOINT Spine1
		{
			OFFSET -0.072800 11.422302 0.713400
			CHANNELS 3 Xrotation Yrotation Zrotation
			JOINT Spine2
			{
				OFFSET -0.083200 13.054001 -1.931600
				CHANNELS 3 Xrotation Yrotation Zrotation
				JOINT Neck
				{
					OFFSET -0.092200 14.121796 -5.138800
					CHANNELS 3 Xrotation Yrotation Zrotation
					JOINT Head
					{
						OFFSET 0.000200 10.447403 -0.842000
						CHANNELS 3 Xrotation Yrotation Zrotation
						JOINT Visor
						{
							OFFSET 0.457100 25.671204 16.550400
							CHANNELS 3 Xrotation Yrotation Zrotation
							End Site
							{
								OFFSET 0.000000 26.061493 0.000000
							}
						}
						JOINT HairMidA
						{
							OFFSET 0.459400 31.585403 8.437400
							CHANNELS 3 Xrotation Yrotation Zrotation
							End Site
							{
								OFFSET 0.000000 26.061493 0.000000
							}
						}
						JOINT HairMidB
						{
							OFFSET 0.464000 33.309204 -8.389700
							CHANNELS 3 Xrotation Yrotation Zrotation
							End Site
							{
								OFFSET 0.000000 26.061493 0.000000
							}
						}
						JOINT HairMidC
						{
							OFFSET 0.466600 27.991196 -17.375099
							CHANNELS 3 Xrotation Yrotation Zrotation
							End Site
							{
								OFFSET 0.000000 26.061493 0.000000
							}
						}
						JOINT HairMidD
						{
							OFFSET 0.467700 17.888092 -21.169500
							CHANNELS 3 Xrotation Yrotation Zrotation
							End Site
							{
								OFFSET 0.000000 26.061493 0.000000
							}
						}
						JOINT HairMidE
						{
							OFFSET 5.325700 3.514603 -14.369699
							CHANNELS 3 Xrotation Yrotation Zrotation
							End Site
							{
								OFFSET 0.000000 26.061493 0.000000
							}
						}
						JOINT HairMidF
						{
							OFFSET -4.394100 3.514603 -14.372400
							CHANNELS 3 Xrotation Yrotation Zrotation
							End Site
							{
								OFFSET 0.000000 26.061493 0.000000
							}
						}
						JOINT HairLeftA
						{
							OFFSET 15.319900 25.746506 2.623300
							CHANNELS 3 Xrotation Yrotation Zrotation
							End Site
							{
								OFFSET 0.000000 26.061493 0.000000
							}
						}
						JOINT HairLeftB
						{
							OFFSET 12.619500 29.289398 -8.731499
							CHANNELS 3 Xrotation Yrotation Zrotation
							End Site
							{
								OFFSET 0.000000 26.061493 0.000000
							}
						}
						JOINT HairLeftC
						{
							OFFSET 15.714800 15.959900 2.909800
							CHANNELS 3 Xrotation Yrotation Zrotation
							End Site
							{
								OFFSET 0.000000 26.061493 0.000000
							}
						}
						JOINT HairLeftD
						{
							OFFSET 16.101700 18.437408 -7.553200
							CHANNELS 3 Xrotation Yrotation Zrotation
							End Site
							{
								OFFSET 0.000000 26.061493 0.000000
							}
						}
						JOINT HairLeftE
						{
							OFFSET 9.731900 17.915009 -18.316799
							CHANNELS 3 Xrotation Yrotation Zrotation
							End Site
							{
								OFFSET 0.000000 26.061493 0.000000
							}
						}
						JOINT HairLeftF
						{
							OFFSET 11.204300 4.953598 -9.668100
							CHANNELS 3 Xrotation Yrotation Zrotation
							End Site
							{
								OFFSET 0.000000 26.061493 0.000000
							}
						}
						JOINT HairRightA
						{
							OFFSET -14.397900 25.746307 2.615100
							CHANNELS 3 Xrotation Yrotation Zrotation
							End Site
							{
								OFFSET 0.000000 26.061493 0.000000
							}
						}
						JOINT HairRightB
						{
							OFFSET -11.691200 29.289200 -8.738199
							CHANNELS 3 Xrotation Yrotation Zrotation
							End Site
							{
								OFFSET 0.000000 26.061493 0.000000
							}
						}
						JOINT HairRightC
						{
							OFFSET -14.792900 15.959702 2.901400
							CHANNELS 3 Xrotation Yrotation Zrotation
							End Site
							{
								OFFSET 0.000000 26.061493 0.000000
							}
						}
						JOINT HairRightD
						{
							OFFSET -15.174000 18.437195 -7.561900
							CHANNELS 3 Xrotation Yrotation Zrotation
							End Site
							{
								OFFSET 0.000000 26.061493 0.000000
							}
						}
						JOINT HairRightE
						{
							OFFSET -8.798200 17.914902 -18.322001
							CHANNELS 3 Xrotation Yrotation Zrotation
							End Site
							{
								OFFSET 0.000000 26.061493 0.000000
							}
						}
						JOINT HairRightF
						{
							OFFSET -10.275200 4.953506 -9.674099
							CHANNELS 3 Xrotation Yrotation Zrotation
							End Site
							{
								OFFSET 0.000000 26.061493 0.000000
							}
						}
					}
				}
				JOINT LeftShoulder
				{
					OFFSET 5.133500 7.341202 -1.867600
					CHANNELS 3 Xrotation Yrotation Zrotation
					JOINT LeftArm
					{
						OFFSET 8.072663 0.936867 -2.176600
						CHANNELS 3 Xrotation Yrotation Zrotation
						JOINT LeftForeArm
						{
							OFFSET 31.271999 0.000000 0.000000
							CHANNELS 3 Xrotation Yrotation Zrotation
							JOINT LeftHand
							{
								OFFSET 31.771030 0.000000 0.000000
								CHANNELS 3 Xrotation Yrotation Zrotation
								JOINT LeftHandThumb1
								{
									OFFSET 2.886520 -2.557846 4.416640
									CHANNELS 3 Xrotation Yrotation Zrotation
									JOINT LeftHandThumb2
									{
										OFFSET 2.371025 -1.368912 1.368911
										CHANNELS 3 Xrotation Yrotation Zrotation
										JOINT LeftHandThumb3
										{
											OFFSET 2.243378 -1.295212 1.295213
											CHANNELS 3 Xrotation Yrotation Zrotation
											End Site
											{
												OFFSET -0.332611 2.876945 0.020015
											}
										}
									}
								}
								JOINT LeftHandIndex1
								{
									OFFSET 8.568985 -0.641945 3.119977
									CHANNELS 3 Xrotation Yrotation Zrotation
									JOINT LeftHandIndex2
									{
										OFFSET 3.348503 0.000000 0.000000
										CHANNELS 3 Xrotation Yrotation Zrotation
										JOINT LeftHandIndex3
										{
											OFFSET 3.314552 0.000000 0.000000
											CHANNELS 3 Xrotation Yrotation Zrotation
											End Site
											{
												OFFSET -1.032898 3.075485 0.678796
											}
										}
									}
								}
								JOINT LeftHandMiddle1
								{
									OFFSET 8.124603 0.000000 0.000000
									CHANNELS 3 Xrotation Yrotation Zrotation
									JOINT LeftHandMiddle2
									{
										OFFSET 4.166275 0.000000 0.000000
										CHANNELS 3 Xrotation Yrotation Zrotation
										JOINT LeftHandMiddle3
										{
											OFFSET 3.018135 0.000000 0.000000
											CHANNELS 3 Xrotation Yrotation Zrotation
											End Site
											{
												OFFSET -1.032700 2.767982 0.617226
											}
										}
									}
								}
								JOINT LeftHandRing1
								{
									OFFSET 8.571686 -0.031357 -2.884048
									CHANNELS 3 Xrotation Yrotation Zrotation
									JOINT LeftHandRing2
									{
										OFFSET 3.671181 0.000000 0.000000
										CHANNELS 3 Xrotation Yrotation Zrotation
										JOINT LeftHandRing3
										{
											OFFSET 2.728851 0.000000 0.000000
											CHANNELS 3 Xrotation Yrotation Zrotation
											End Site
											{
												OFFSET -0.815796 2.539223 0.577389
											}
										}
									}
								}
								JOINT LeftHandPinky1
								{
									OFFSET 7.854515 -0.675232 -5.213020
									CHANNELS 3 Xrotation Yrotation Zrotation
									JOINT LeftHandPinky2
									{
										OFFSET 3.068596 0.000000 0.000000
										CHANNELS 3 Xrotation Yrotation Zrotation
										JOINT LeftHandPinky3
										{
											OFFSET 2.396042 0.000000 0.000000
											CHANNELS 3 Xrotation Yrotation Zrotation
											End Site
											{
												OFFSET -0.524597 2.267998 0.567429
											}
										}
									}
								}
							}
							JOINT LeftSleeve
							{
								OFFSET 19.684509 -0.200119 0.476146
								CHANNELS 3 Xrotation Yrotation Zrotation
								End Site
								{
									OFFSET -0.031017 25.731133 -0.002868
								}
							}
						}
					}
				}
				JOINT RightShoulder
				{
					OFFSET -4.395900 7.341202 -1.870200
					CHANNELS 3 Xrotation Yrotation Zrotation
					JOINT RightArm
					{
						OFFSET -8.071453 0.936867 -2.181100
						CHANNELS 3 Xrotation Yrotation Zrotation
						JOINT RightForeArm
						{
							OFFSET -31.272011 0.000000 0.000000
							CHANNELS 3 Xrotation Yrotation Zrotation
							JOINT RightHand
							{
								OFFSET -31.771019 0.000000 0.000000
								CHANNELS 3 Xrotation Yrotation Zrotation
								JOINT RightHandThumb1
								{
									OFFSET -2.886520 -2.557808 4.416626
									CHANNELS 3 Xrotation Yrotation Zrotation
									JOINT RightHandThumb2
									{
										OFFSET -2.371056 -1.368927 1.368928
										CHANNELS 3 Xrotation Yrotation Zrotation
										JOINT RightHandThumb3
										{
											OFFSET -2.243362 -1.295204 1.295206
											CHANNELS 3 Xrotation Yrotation Zrotation
											End Site
											{
												OFFSET 0.332642 2.876938 0.020047
											}
										}
									}
								}
								JOINT RightHandIndex1
								{
									OFFSET -8.568993 -0.641953 3.120017
									CHANNELS 3 Xrotation Yrotation Zrotation
									JOINT RightHandIndex2
									{
										OFFSET -3.348518 0.000000 0.000000
										CHANNELS 3 Xrotation Yrotation Zrotation
										JOINT RightHandIndex3
										{
											OFFSET -3.314552 0.000000 0.000000
											CHANNELS 3 Xrotation Yrotation Zrotation
											End Site
											{
												OFFSET 1.032898 3.075478 0.678804
											}
										}
									}
								}
								JOINT RightHandMiddle1
								{
									OFFSET -8.124588 0.000000 0.000000
									CHANNELS 3 Xrotation Yrotation Zrotation
									JOINT RightHandMiddle2
									{
										OFFSET -4.166275 0.000000 0.000000
										CHANNELS 3 Xrotation Yrotation Zrotation
										JOINT RightHandMiddle3
										{
											OFFSET -3.018097 0.000000 0.000000
											CHANNELS 3 Xrotation Yrotation Zrotation
											End Site
											{
												OFFSET 1.032700 2.767937 0.617197
											}
										}
									}
								}
								JOINT RightHandRing1
								{
									OFFSET -8.571747 -0.031349 -2.884061
									CHANNELS 3 Xrotation Yrotation Zrotation
									JOINT RightHandRing2
									{
										OFFSET -3.671204 0.000000 0.000000
										CHANNELS 3 Xrotation Yrotation Zrotation
										JOINT RightHandRing3
										{
											OFFSET -2.728874 0.000000 0.000000
											CHANNELS 3 Xrotation Yrotation Zrotation
											End Site
											{
												OFFSET 0.815804 2.539261 0.577413
											}
										}
									}
								}
								JOINT RightHandPinky1
								{
									OFFSET -7.854561 -0.675247 -5.212970
									CHANNELS 3 Xrotation Yrotation Zrotation
									JOINT RightHandPinky2
									{
										OFFSET -3.068550 0.000000 0.000000
										CHANNELS 3 Xrotation Yrotation Zrotation
										JOINT RightHandPinky3
										{
											OFFSET -2.395981 0.000000 0.000000
											CHANNELS 3 Xrotation Yrotation Zrotation
											End Site
											{
												OFFSET 0.524605 2.267952 0.567413
											}
										}
									}
								}
							}
							JOINT RightSleeve
							{
								OFFSET -19.684753 -0.200165 0.476065
								CHANNELS 3 Xrotation Yrotation Zrotation
								End Site
								{
									OFFSET 0.031342 25.731255 -0.002917
								}
							}
						}
					}
				}
				JOINT Hood
				{
					OFFSET 0.369700 14.447800 -5.317800
					CHANNELS 3 Xrotation Yrotation Zrotation
					JOINT Hood1
					{
						OFFSET 0.001700 -5.553802 -5.895100
						CHANNELS 3 Xrotation Yrotation Zrotation
						JOINT Hood2
						{
							OFFSET -0.000200 -8.380501 0.763600
							CHANNELS 3 Xrotation Yrotation Zrotation
							End Site
							{
								OFFSET 0.000000 8.415215 0.000000
							}
						}
					}
				}
				JOINT Left_Breast
				{
					OFFSET 5.682500 3.120102 3.188800
					CHANNELS 3 Xrotation Yrotation Zrotation
					End Site
					{
						OFFSET 0.000000 10.528564 0.000000
					}
				}
				JOINT Right_Breast
				{
					OFFSET -4.947600 3.120102 3.185900
					CHANNELS 3 Xrotation Yrotation Zrotation
					End Site
					{
						OFFSET 0.000000 10.528564 0.000000
					}
				}
				JOINT Whistle
				{
					OFFSET 0.368200 11.471298 0.095400
					CHANNELS 3 Xrotation Yrotation Zrotation
					JOINT Whistle1
					{
						OFFSET -0.002000 -6.349899 7.479800
						CHANNELS 3 Xrotation Yrotation Zrotation
						JOINT Whistle2
						{
							OFFSET -0.001300 -8.217598 4.717600
							CHANNELS 3 Xrotation Yrotation Zrotation
							End Site
							{
								OFFSET 0.000000 9.475479 0.000000
							}
						}
					}
				}
			}
		}
		JOINT Belly
		{
			OFFSET 0.212400 1.593002 3.163700
			CHANNELS 3 Xrotation Yrotation Zrotation
			End Site
			{
				OFFSET 0.000000 7.496635 0.000000
			}
		}
	}
	JOINT FitGrandmaFacialAnim_Joint
	{
		OFFSET 1.150000 -86.211197 -1.220100
		CHANNELS 3 Xrotation Yrotation Zrotation
		End Site
		{
			OFFSET 0.000000 31.666618 0.000000
		}
	}
}
MOTION
Frames: 4
Frame Time: 0.016667
-2.483378 76.986832 0.995961 3.011893 -58.236112 6.472941 -0.000000 0.000001 -0.000000 -31.697532 10.719532 25.365379 44.298145 -9.062205 -10.058196 -14.564992 -2.375295 -8.843750 0.000000 0.000001 0.000000 -0.000000 -0.000001 0.000003 -0.000001 -0.000002 -0.000002 -29.500055 -9.421921 -26.767202 50.827280 3.528129 -7.809630 -25.428840 1.456645 21.715383 -0.000000 -0.000001 -0.000000 -0.000001 -0.000001 -0.000001 0.000004 -0.000001 -0.000000 11.191398 0.108763 -2.692038 8.434578 0.027698 -5.592314 8.457054 0.027872 -5.591865 -21.555736 25.063386 12.062601 -0.294014 25.465829 -3.208975 0.000000 0.000000 -0.000001 0.000000 0.000000 -0.000001 0.000000 0.000000 -0.000001 0.000000 0.000000 -0.000001 0.000000 0.000000 -0.000001 0.000000 0.000000 -0.000001 0.000000 0.000000 -0.000001 0.000000 0.000000 -0.000001 0.000000 0.000000 -0.000001 0.000000 0.000000 -0.000001 0.000000 0.000000 -0.000001 0.000000 0.000000 -0.000001 0.000000 0.000000 -0.000001 0.000000 0.000000 -0.000001 0.000000 0.000000 -0.000001 0.000000 0.000000 -0.000001 0.000000 0.000000 -0.000001 0.000000 0.000000 -0.000001 0.000000 0.000000 -0.000001 -6.221674 -11.503791 -4.023835 -23.061676 9.569079 -36.639744 0.046296 -43.170842 -0.011013 22.743587 -5.684969 15.978978 -1.064235 -7.954927 8.490092 2.373404 19.986097 -2.038324 0.000000 0.000001 -0.000002 13.340889 -1.006671 10.682296 -0.167598 0.303391 -31.105668 0.000002 0.000002 0.000004 8.495434 -0.329525 -0.915315 0.231518 0.661197 -29.901810 -0.000000 -0.000003 -0.000002 6.111755 3.150912 -16.210957 0.047078 0.322445 -30.125451 0.000002 0.000000 0.000004 -5.636037 7.709900 -13.878616 0.224353 0.276542 -46.588379 -0.000000 0.000001 -0.000001 0.000001 -0.000001 0.000001 -5.488253 10.658268 2.466548 -41.473168 -26.756173 30.079463 24.953710 111.863957 -23.306704 -8.702476 12.422786 -9.802168 0.264988 10.061106 -10.888488 1.383801 -17.412874 3.016267 -0.000000 0.000002 -0.000003 19.443595 11.174411 -13.340189 -0.118667 -0.322691 18.035605 0.000001 -0.000002 -0.000001 4.320460 2.436974 -4.811716 0.349135 -0.461256 26.890299 0.000005 0.000002 0.000001 -7.005633 -10.695115 5.719845 0.111887 -0.089213 26.155907 -0.000001 0.000000 0.000001 -19.433514 -20.238214 5.987854 0.223772 -0.085759 36.844622 -0.000005 -0.000002 0.000000 -0.000002 -0.000000 -0.000002 -0.000002 0.000002 -0.000000 -0.000002 0.000002 -0.000000 -0.000002 0.000002 -0.000000 -0.000002 0.000002 -0.000000 -0.000002 0.000002 -0.000000 -0.000002 0.000002 -0.000002 -0.000002 -0.000002 -0.000001 -0.000002 -0.000002 -0.000001 -0.000000 -0.000000 0.000001 -0.000000 0.000001 -0.000000 
-2.475087 76.987411 1.027435 3.035448 -58.206052 6.492189 -0.000000 -0.000000 0.000000 -31.725737 10.719084 25.340658 44.325605 -9.082241 -10.064974 -14.585087 -2.380013 -8.804880 0.000000 -0.000002 0.000000 0.000000 0.000002 -0.000000 -0.000003 -0.000001 -0.000000 -29.475347 -9.423726 -26.791612 50.778013 3.507887 -7.806754 -25.411307 1.449548 21.755145 0.000000 0.000000 -0.000000 0.000001 0.000002 -0.000003 0.000002 -0.000000 -0.000001 11.191417 0.107823 -2.695298 8.434580 0.027707 -5.592326 8.457056 0.027857 -5.591860 -21.547782 25.033965 12.079120 -0.272048 25.428509 -3.263958 0.000000 0.000000 -0.000000 0.000000 0.000000 -0.000000 0.000000 0.000000 -0.000000 0.000000 0.000000 -0.000000 0.000000 0.000000 -0.000000 0.000000 0.000000 -0.000000 0.000000 0.000000 -0.000000 0.000000 0.000000 -0.000000 0.000000 0.000000 -0.000000 0.000000 0.000000 -0.000000 0.000000 0.000000 -0.000000 0.000000 0.000000 -0.000000 0.000000 0.000000 -0.000000 0.000000 0.000000 -0.000000 0.000000 0.000000 -0.000000 0.000000 0.000000 -0.000000 0.000000 0.000000 -0.000000 0.000000 0.000000 -0.000000 0.000000 0.000000 -0.000000 -6.224952 -11.506079 -4.040194 -23.270321 9.617869 -36.667867 0.069764 -43.129527 0.031118 23.501506 -5.369476 16.129548 -1.038537 -7.796615 8.549073 2.420513 20.133379 -1.982855 0.000001 0.000001 0.000001 13.341393 -1.007218 10.512661 -0.167401 0.303506 -31.275371 0.000000 -0.000001 -0.000003 8.492720 -0.327820 -1.084970 0.232460 0.661745 -30.071520 0.000001 -0.000003 0.000003 6.109954 3.152863 -16.380443 0.047146 0.323642 -30.295174 0.000001 0.000000 0.000002 -5.636763 7.710938 -14.047779 0.225055 0.277121 -46.757993 0.000001 0.000000 -0.000001 0.000003 -0.000000 -0.000005 -5.494062 10.657941 2.495525 -41.054450 -26.626302 30.531598 28.810120 112.648275 -27.515654 -7.502677 11.836812 -10.784960 0.243517 10.220482 -10.828466 1.330398 -17.266324 3.075580 0.000000 0.000001 0.000001 19.443324 11.174219 -13.513174 -0.118825 -0.322577 17.863200 0.000001 0.000003 -0.000002 4.323249 2.438513 -4.984194 0.348174 -0.460541 26.717924 0.000001 -0.000001 -0.000004 -7.004229 -10.693725 5.546719 0.111871 -0.088040 25.983459 -0.000000 0.000000 0.000003 -19.432972 -20.237538 5.812520 0.223207 -0.085071 36.672201 -0.000005 -0.000001 -0.000000 -0.000003 0.000000 -0.000002 0.000002 0.000000 -0.000000 0.000002 0.000000 -0.000000 0.000002 0.000000 -0.000000 0.000002 0.000000 -0.000000 0.000002 0.000000 -0.000000 0.000002 0.000000 -0.000000 -0.000001 -0.000000 -0.000001 -0.000001 -0.000000 -0.000001 0.000001 0.000001 0.000000 -0.000000 -0.000000 0.000000 
-2.447896 76.990906 1.113860 3.056690 -58.175494 6.511041 -0.000000 -0.000000 -0.000000 -31.757600 10.725250 25.276256 44.415979 -9.100349 -10.081260 -14.660682 -2.388446 -8.717531 0.000000 0.000001 -0.000000 0.000000 0.000001 -0.000000 -0.000001 0.000001 0.000000 -29.412728 -9.429747 -26.871177 50.645801 3.515697 -7.794880 -25.350155 1.439764 21.837904 0.000000 0.000001 0.000000 -0.000002 0.000001 -0.000002 0.000000 -0.000000 -0.000000 11.191460 0.105344 -2.705123 8.427927 0.021800 -5.590526 8.450535 0.024365 -5.590745 -21.522814 24.948422 12.125790 -0.210774 25.320601 -3.422930 -0.000000 -0.000000 -0.000000 -0.000000 -0.000000 -0.000000 -0.000000 -0.000000 -0.000000 -0.000000 -0.000000 -0.000000 -0.000000 -0.000000 -0.000000 -0.000000 -0.000000 -0.000000 -0.000000 -0.000000 -0.000000 -0.000000 -0.000000 -0.000000 -0.000000 -0.000000 -0.000000 -0.000000 -0.000000 -0.000000 -0.000000 -0.000000 -0.000000 -0.000000 -0.000000 -0.000000 -0.000000 -0.000000 -0.000000 -0.000000 -0.000000 -0.000000 -0.000000 -0.000000 -0.000000 -0.000000 -0.000000 -0.000000 -0.000000 -0.000000 -0.000000 -0.000000 -0.000000 -0.000000 -0.000000 -0.000000 -0.000000 -6.234553 -11.512573 -4.088057 -23.549893 9.594461 -36.642589 0.138470 -42.979273 0.153731 24.249782 -5.074748 16.216163 -1.011781 -7.630804 8.610744 2.469887 20.287595 -1.924799 0.000001 0.000001 0.000001 13.341952 -1.007887 10.334938 -0.167217 0.303604 -31.453069 0.000002 -0.000002 -0.000002 8.489886 -0.326095 -1.262659 0.233446 0.662286 -30.249299 -0.000001 0.000000 -0.000001 6.109447 3.154902 -16.558098 0.047230 0.324744 -30.472851 0.000002 0.000001 -0.000001 -5.635108 7.712071 -14.225267 0.225737 0.277689 -46.935779 -0.000001 0.000001 0.000001 0.000001 0.000000 0.000002 -5.511177 10.663428 2.580824 -40.669426 -26.535565 30.926591 30.091915 112.878486 -29.366371 -7.446040 11.442793 -11.863736 0.220556 10.390400 -10.764409 1.272148 -17.106771 3.140225 -0.000000 0.000005 -0.000002 19.443037 11.174030 -13.701403 -0.119001 -0.322445 17.675442 -0.000002 -0.000001 0.000001 4.326290 2.440263 -5.171995 0.347180 -0.459885 26.530162 0.000002 0.000001 0.000000 -7.002693 -10.692161 5.358367 0.111910 -0.086796 25.795753 0.000000 -0.000001 0.000003 -19.432433 -20.236766 5.622073 0.222556 -0.084387 36.484466 -0.000006 0.000000 -0.000000 -0.000003 -0.000001 -0.000002 0.000001 0.000003 -0.000001 0.000001 0.000003 -0.000001 0.000001 0.000003 -0.000001 0.000001 0.000003 -0.000001 0.000001 0.000003 -0.000001 0.000001 0.000003 -0.000002 -0.000002 0.000003 -0.000002 -0.000002 0.000003 -0.000002 -0.000000 -0.000002 0.000001 -0.000000 -0.000000 -0.000000 
-2.403095 76.997078 1.251617 3.077328 -58.144765 6.530638 -0.000000 0.000001 -0.000000 -31.792417 10.738948 25.173989 44.562442 -9.115481 -10.105879 -14.788186 -2.400809 -8.581865 -0.000000 -0.000002 0.000000 -0.000000 0.000001 0.000002 -0.000003 -0.000000 -0.000001 -29.313092 -9.438650 -27.000040 50.432833 3.545743 -7.774295 -25.247741 1.427786 21.959827 0.000000 0.000000 0.000000 0.000001 0.000000 -0.000001 0.000003 0.000001 -0.000002 11.191235 0.097402 -2.720294 8.417024 0.011625 -5.587463 8.439832 0.017447 -5.588563 -21.483276 24.810493 12.200241 -0.116155 25.146474 -3.675489 -0.000000 -0.000000 -0.000001 -0.000000 -0.000000 -0.000001 -0.000000 -0.000000 -0.000001 -0.000000 -0.000000 -0.000001 -0.000000 -0.000000 -0.000001 -0.000000 -0.000000 -0.000001 -0.000000 -0.000000 -0.000001 -0.000000 -0.000000 -0.000001 -0.000000 -0.000000 -0.000001 -0.000000 -0.000000 -0.000001 -0.000000 -0.000000 -0.000001 -0.000000 -0.000000 -0.000001 -0.000000 -0.000000 -0.000001 -0.000000 -0.000000 -0.000001 -0.000000 -0.000000 -0.000001 -0.000000 -0.000000 -0.000001 -0.000000 -0.000000 -0.000001 -0.000000 -0.000000 -0.000001 -0.000000 -0.000000 -0.000001 -6.250115 -11.523026 -4.165729 -23.890543 9.502016 -36.578907 0.247191 -42.732310 0.348570 24.987924 -4.799913 16.250152 -0.984040 -7.458094 8.674863 2.521171 20.448130 -1.864328 -0.000000 -0.000000 0.000000 13.342518 -1.008580 10.149960 -0.167020 0.303729 -31.638099 -0.000000 -0.000000 -0.000001 8.486903 -0.324314 -1.447683 0.234521 0.663162 -30.434295 -0.000000 -0.000000 -0.000002 6.108903 3.157017 -16.743042 0.047348 0.325774 -30.657915 -0.000002 0.000002 -0.000001 -5.633367 7.713203 -14.410113 0.226459 0.278287 -47.120806 -0.000001 0.000001 0.000001 0.000000 0.000002 0.000002 -5.532798 10.672754 2.720147 -40.331823 -26.475738 31.254068 31.604409 113.060859 -31.458103 -7.371042 11.217572 -13.032102 0.196129 10.570072 -10.696626 1.209435 -16.935288 3.209920 0.000001 0.000002 0.000002 19.442743 11.173811 -13.903707 -0.119174 -0.322241 17.473480 -0.000001 -0.000000 0.000003 4.329557 2.442082 -5.373974 0.346113 -0.458879 26.328267 -0.000001 0.000000 -0.000003 -7.000966 -10.690033 5.156126 0.111898 -0.085454 25.593837 -0.000001 -0.000001 0.000001 -19.431110 -20.232622 5.419741 0.221927 -0.083618 36.282504 -0.000003 -0.000001 -0.000001 0.000002 -0.000004 -0.000000 0.000002 -0.000000 -0.000000 0.000002 -0.000000 -0.000000 0.000002 -0.000000 -0.000000 0.000002 -0.000000 -0.000000 0.000002 -0.000000 -0.000000 0.000002 -0.000000 -0.000000 0.000001 0.000001 0.000000 0.000001 0.000001 0.000000 0.000001 0.000001 -0.000001 -0.000000 0.000001 -0.000000 
